<svg width="231" height="173" viewBox="0 0 231 173"  xmlns="http://www.w3.org/2000/svg">
<path d="M230.338 77.795L219.161 52.483C217.961 49.765 215.271 48.012 212.3 48.012H193.776C189.634 48.012 186.276 51.369 186.276 55.512V67.335H180.514V57.607C180.514 53.464 177.156 50.107 173.014 50.107H153.046V29.642C153.046 25.499 149.688 22.142 145.546 22.142H108.651V15H145.546C149.688 15 153.046 11.642 153.046 7.5C153.046 3.357 149.688 0 145.546 0H56.758C52.616 0 49.258 3.357 49.258 7.5C49.258 11.642 52.616 15 56.758 15H93.653V22.142H56.758C52.616 22.142 49.258 25.499 49.258 29.642V35.876H32.804C28.662 35.876 25.304 39.233 25.304 43.376V83.623H15V43.376C15 39.233 11.642 35.876 7.5 35.876C3.358 35.876 0 39.234 0 43.376V138.872C0 143.015 3.358 146.372 7.5 146.372C11.642 146.372 15 143.015 15 138.872V98.623H25.304V138.872C25.304 143.015 28.662 146.372 32.804 146.372H61.943L91.551 171.134C92.901 172.263 94.603 172.881 96.363 172.881H173.015C177.157 172.881 180.515 169.524 180.515 165.381V144.936H186.277V156.759C186.277 160.902 189.635 164.259 193.777 164.259H212.301C215.272 164.259 217.962 162.506 219.162 159.788L230.339 134.476C230.76 133.522 230.978 132.49 230.978 131.447V80.824C230.978 79.782 230.76 78.749 230.338 77.795ZM215.978 129.866L207.415 149.26H201.277V137.437C201.277 133.294 197.919 129.937 193.777 129.937H173.015C168.873 129.937 165.515 133.294 165.515 137.437V157.882H99.085L69.477 133.12C68.127 131.991 66.425 131.373 64.665 131.373H40.304V50.876H56.758C60.9 50.876 64.258 47.519 64.258 43.376V37.142H138.047V57.609C138.047 61.752 141.405 65.109 145.547 65.109H165.515V74.837C165.515 78.98 168.873 82.337 173.015 82.337H193.777C197.919 82.337 201.277 78.98 201.277 74.837V63.013H207.415L215.978 82.407V129.866Z"/>
</svg>
