<svg fill="#fff" width="212" height="138" viewBox="0 0 212 138"  xmlns="http://www.w3.org/2000/svg">
<path d="M182.325 19.618C165.843 7.551 145.319 0.346001 127.424 0.346001C109.413 0.346001 96.102 7.608 87.861 21.929C81.404 33.15 78.264 48.449 78.264 68.7C78.264 88.95 81.403 104.249 87.861 115.471C96.103 129.792 109.414 137.054 127.424 137.054C145.319 137.054 165.843 129.849 182.325 117.782C201.073 104.055 211.398 86.624 211.398 68.701C211.398 50.775 201.073 33.345 182.325 19.618ZM173.464 105.677C159.669 115.778 142.027 122.052 127.424 122.052C111.52 122.052 93.264 115.988 93.264 68.699C93.264 21.41 111.52 15.345 127.424 15.345C142.028 15.345 159.669 21.619 173.464 31.72C188.039 42.391 196.399 55.869 196.399 68.699C196.398 81.528 188.039 95.006 173.464 105.677Z"/>
<path d="M64.055 7.945L7.5 7.944C3.358 7.944 0 11.302 0 15.444C0 19.586 3.358 22.944 7.5 22.944L64.055 22.945C68.197 22.945 71.555 19.587 71.555 15.445C71.555 11.303 68.197 7.945 64.055 7.945Z"/>
<path d="M64.055 35.299H7.5C3.358 35.299 0 38.657 0 42.799C0 46.941 3.358 50.299 7.5 50.299H64.055C68.197 50.299 71.555 46.941 71.555 42.799C71.555 38.657 68.197 35.299 64.055 35.299Z"/>
<path d="M64.055 62.653H7.5C3.358 62.653 0 66.011 0 70.153C0 74.295 3.358 77.653 7.5 77.653H64.055C68.197 77.653 71.555 74.295 71.555 70.153C71.555 66.011 68.197 62.653 64.055 62.653Z"/>
<path d="M64.055 90.008H7.5C3.358 90.008 0 93.366 0 97.508C0 101.65 3.358 105.008 7.5 105.008H64.055C68.197 105.008 71.555 101.65 71.555 97.508C71.555 93.366 68.197 90.008 64.055 90.008Z"/>
<path d="M64.055 117.362H7.5C3.358 117.362 0 120.72 0 124.862C0 129.004 3.358 132.362 7.5 132.362H64.055C68.197 132.362 71.555 129.004 71.555 124.862C71.555 120.72 68.197 117.362 64.055 117.362Z"/>
</svg>
