<svg fill="#fff" width="212" height="161" viewBox="0 0 212 161" xmlns="http://www.w3.org/2000/svg">
<path d="M60.7027 117.808L4.14774 146.086C0.442744 147.938 -1.05926 152.443 0.793746 156.148C2.10774 158.776 4.75574 160.295 7.50774 160.295C8.63474 160.295 9.77874 160.04 10.8557 159.502L67.4117 131.224C71.1167 129.372 72.6187 124.867 70.7657 121.162C68.9127 117.457 64.4077 115.954 60.7027 117.808Z"/>
<path d="M60.7027 63.099L4.14774 91.376C0.442744 93.228 -1.05926 97.733 0.793746 101.438C2.10774 104.066 4.75574 105.585 7.50774 105.585C8.63474 105.585 9.77874 105.33 10.8557 104.792L67.4117 76.515C71.1167 74.663 72.6187 70.158 70.7657 66.453C68.9127 62.747 64.4077 61.246 60.7027 63.099Z"/>
<path d="M60.7027 35.745L4.14774 64.023C0.442744 65.875 -1.05926 70.38 0.793746 74.085C2.10774 76.713 4.75574 78.232 7.50774 78.232C8.63474 78.232 9.77874 77.977 10.8557 77.439L67.4117 49.161C71.1167 47.309 72.6187 42.804 70.7657 39.099C68.9127 35.393 64.4077 33.891 60.7027 35.745Z"/>
<path d="M60.7027 8.39099L4.14774 36.668C0.442744 38.52 -1.05926 43.025 0.793746 46.73C2.10774 49.358 4.75574 50.877 7.50774 50.877C8.63474 50.877 9.77874 50.622 10.8557 50.083L67.4117 21.806C71.1167 19.954 72.6187 15.448 70.7657 11.744C68.9127 8.03899 64.4077 6.53599 60.7027 8.39099Z"/>
<path d="M182.327 19.272C165.845 7.204 145.322 0 127.427 0C109.416 0 96.1048 7.262 87.8638 21.583C81.4068 32.804 78.2668 48.103 78.2668 68.354C78.2668 88.604 81.4058 103.903 87.8638 115.125C96.1058 129.446 109.417 136.708 127.427 136.708C145.322 136.708 165.845 129.503 182.327 117.435C201.075 103.708 211.399 86.277 211.399 68.354C211.399 50.429 201.074 32.998 182.327 19.272ZM173.465 105.331C159.67 115.432 142.028 121.707 127.426 121.707C111.522 121.707 93.2658 115.643 93.2658 68.353C93.2658 21.064 111.522 14.999 127.426 14.999C142.029 14.999 159.67 21.274 173.465 31.374C188.04 42.045 196.399 55.523 196.399 68.353C196.399 81.182 188.04 94.66 173.465 105.331Z"/>
<path d="M60.7027 90.453L4.14774 118.732C0.442744 120.584 -1.05926 125.089 0.793746 128.794C2.10774 131.422 4.75574 132.941 7.50774 132.941C8.63474 132.941 9.77874 132.686 10.8557 132.148L67.4117 103.87C71.1167 102.018 72.6187 97.513 70.7657 93.808C68.9127 90.102 64.4077 88.6 60.7027 90.453Z"/>
</svg>
